PathFileType	4	(X/Y/Z)	/Users/mathieubourgeois/Desktop/Analyse/Traitement/Sujet_08/Data/Transformed_Sujet_08_velo_100.trc
DataRate	CameraRate	NumFrames	NumMarkers	Units	OrigDataRate	OrigDataStartFrame	OrigNumFrames
120.000000	120.000000	5	35	mm	120.000000	465	1862
Frame#	Time	RFHD			RANE			STRN			LANI			LKNE			T10			RHUM			RWRB			C7			LFWT			LTOE			RTOE			LWRA			LBWT			RBWT			RFWT			LKNI			RKNI			RKNE			LANE			RANI			LHEE			LHUM			LRAD			RRAD			RWRA			LWRB			LFHD			LBHD			RBHD			RSHO			LSHO			CLAV			LCAR			RCAR			
		X1	Y1	Z1	X2	Y2	Z2	X3	Y3	Z3	X4	Y4	Z4	X5	Y5	Z5	X6	Y6	Z6	X7	Y7	Z7	X8	Y8	Z8	X9	Y9	Z9	X10	Y10	Z10	X11	Y11	Z11	X12	Y12	Z12	X13	Y13	Z13	X14	Y14	Z14	X15	Y15	Z15	X16	Y16	Z16	X17	Y17	Z17	X18	Y18	Z18	X19	Y19	Z19	X20	Y20	Z20	X21	Y21	Z21	X22	Y22	Z22	X23	Y23	Z23	X24	Y24	Z24	X25	Y25	Z25	X26	Y26	Z26	X27	Y27	Z27	X28	Y28	Z28	X29	Y29	Z29	X30	Y30	Z30	X31	Y31	Z31	X32	Y32	Z32	X33	Y33	Z33	X34	Y34	Z34	X35	Y35	Z35	

466	3.875	233.6479339599609	1511.269897460938	60.74269866943353	-131.658187866211	273.130859375	177.4839477539062	-35.96774673461914	1158.37158203125	7.024209022521897	-186.8564147949219	623.3700561523438	-70.0623855590821	55.58759689331057	937.4027709960938	-145.7258453369141	-192.3473052978516	1350.248168945312	17.74053764343251	136.1221618652343	1062.529296875	206.6315002441406	335.2382507324218	905.543701171875	253.0990753173828	21.78396987915039	1430.632934570312	3.381458997726356	-261.8719787597656	1100.0673828125	-94.77024841308604	-100.1201095581055	458.9147644042969	-107.6432647705079	43.58022308349608	168.3383331298828	133.8147430419922	356.0205993652344	938.583984375	-177.2116241455078	-396.3754577636719	1156.49609375	-23.83619499206555	-384.0397338867188	1148.686401367188	108.7493820190429	-225.3614196777344	1082.59765625	134.8662109374999	31.49338150024414	873.0853271484375	-40.3744621276856	-73.70024871826173	621.913818359375	77.47804260253901	-100.0481643676758	686.1312866210938	185.4635620117187	-221.0515747070312	632.6181030273438	-152.5406188964844	-102.8828811645508	288.3181762695312	98.73286437988278	-272.3623046875	636.6231689453125	-109.5265884399415	121.5071411132813	1055.424682617188	-193.9129638671875	163.7487335205078	1079.607299804688	-258.4559326171876	171.8692169189453	1083.287719726562	257.4520263671874	357.6500244140625	926.3053588867188	185.6621551513672	330.2198181152344	890.6109008789062	-228.9250793457032	236.0471496582031	1524.400146484375	-65.89092254638679	79.99258422851564	1535.712768554688	-77.73363494873055	68.33457183837889	1538.560791015625	59.19161224365226	74.94750976562499	1356.049072265625	133.430923461914	59.6480293273926	1350.589965820312	-146.1806182861329	70.12348175048828	1297.672607421875	-0.6678879857064003	426.3721923828126	911.8882446289062	-255.8878631591797	434.9097595214843	911.8609619140625	273.4384765625	
467	3.883333333333333	234.1550445556641	1512.035278320312	59.78999710083001	-145.7801055908203	269.513916015625	177.5957031249999	-34.91286849975586	1158.88818359375	6.432283878326341	-178.9795379638672	628.3877563476562	-69.58084869384773	57.51116180419923	948.0853881835938	-143.6704559326172	-191.5532379150391	1350.729248046875	17.98497200012196	136.7992553710937	1063.080810546875	206.6263122558593	335.4304504394531	905.512451171875	253.1975860595703	22.38445854187012	1431.22900390625	2.711227416992103	-261.7250061035156	1101.515625	-94.1274414062501	-84.1338653564453	468.23681640625	-107.0741653442383	27.76265335083006	161.5820770263672	133.833984375	356.1864929199219	938.5950317382812	-177.2300872802734	-395.8492736816406	1157.51953125	-23.35441780090344	-383.4872436523438	1149.37939453125	109.1321716308593	-224.9281616210938	1082.952880859375	135.5037536621093	34.5231056213379	883.0654296875	-38.3549308776856	-82.2716751098633	616.8787231445312	77.12295532226557	-106.564079284668	682.30078125	185.1111755371093	-211.4558868408203	636.7412719726562	-152.6579132080079	-116.4913330078125	284.3010559082031	98.8639221191406	-263.533203125	638.2818603515625	-109.5042724609376	121.8844375610352	1055.808715820312	-194.2150268554688	164.1504364013672	1079.816162109375	-258.7700805664063	172.7232971191406	1083.876831054688	257.3580627441406	357.8851928710938	926.2464599609375	185.7577972412109	330.3372497558594	890.7025146484375	-228.8975524902344	236.5929870605469	1525.159301757812	-66.85993957519538	80.47963714599611	1536.274047851562	-78.72609710693368	68.80959320068358	1539.204345703125	58.20990371704093	76.10290527343749	1356.560791015625	132.5265655517577	60.24621582031252	1351.090209960938	-147.0050048828126	70.91016387939453	1298.366455078125	-1.421097397804331	426.5152587890626	911.8023681640625	-255.8553466796875	435.1581115722656	911.6929321289062	273.4907836914062	
468	3.891666666666667	234.6422576904297	1512.689208984375	58.8563156127929	-160.0990295410157	267.56494140625	177.3744201660156	-34.03812789916992	1159.316528320312	6.022120952606126	-169.2967529296875	631.591796875	-68.81578826904303	60.37388992309572	958.0410766601562	-140.4543457031251	-190.8710327148438	1351.271484375	18.27904319763173	137.3702850341797	1063.53515625	206.589599609375	335.6221923828124	905.505126953125	253.2452697753906	22.96817207336426	1431.748168945312	2.121389389038001	-261.8057556152344	1103.025756835938	-93.41237640380869	-67.70296478271483	475.7957153320312	-106.5498504638672	11.38482189178465	156.0065612792969	133.9881591796875	356.3250732421875	938.620849609375	-177.2716979980469	-395.4734497070312	1158.626953125	-22.85712814331067	-383.0811157226562	1150.183715820312	109.4392089843749	-224.6451721191407	1083.391479492188	136.1603698730468	36.82948684692384	891.5508422851562	-36.19751739501958	-89.17471313476564	613.7539672851562	76.78620910644526	-111.9654006958008	679.5021362304688	184.8012542724609	-201.3836364746093	638.9417114257812	-152.6221008300782	-130.3392486572266	281.8003845214844	98.69795989990232	-254.9988555908203	638.6928100585938	-110.7534942626954	122.2310867309571	1056.154541015625	-194.507064819336	164.573974609375	1080.053833007812	-259.1190490722657	173.3506774902343	1084.375366210938	257.2203979492187	358.1166687011719	926.1851196289062	185.8194274902344	330.4672241210938	890.63720703125	-228.9500274658203	236.9730377197266	1525.738159179688	-67.83904266357429	80.88732910156251	1536.708740234375	-79.59249114990243	69.29338836669922	1539.748046875	57.36410140991202	77.09056854248045	1357.055419921875	131.7350006103515	60.75950241088869	1351.563598632812	-147.6276092529298	71.55580902099609	1298.939331054688	-2.062381029129099	426.6376647949219	911.7327880859375	-255.8475189208984	435.3247680664062	911.4556884765625	273.5426025390625	
469	3.9	235.1038818359375	1513.161376953125	58.00911712646478	-174.2949523925782	267.1759338378906	176.8297119140624	-33.24945449829102	1159.650024414062	5.752430915832444	-158.8818664550781	632.6373901367188	-69.51993560791021	61.91916656494142	966.1036987304688	-137.4465484619141	-190.2305145263672	1351.784057617188	18.53119850158681	137.8585662841797	1063.908325195312	206.484130859375	335.7582397460937	905.4866333007812	253.2845458984375	23.46684265136719	1432.2138671875	1.735854148864661	-261.9901428222656	1104.581787109375	-92.69356536865244	-49.82276916503905	482.1001281738281	-106.3832321166992	-5.239548206329363	151.7651977539062	134.1976623535156	356.5187377929688	938.6730346679688	-177.326904296875	-395.2575988769531	1159.76953125	-22.39361572265637	-382.8402709960938	1151.018676757812	109.6961441040038	-224.5525817871094	1083.921997070312	136.6795959472655	38.60628890991212	899.4541015625	-32.84548950195317	-94.2757034301758	611.460205078125	76.69281768798822	-116.2889022827149	677.5638427734375	184.6286315917968	-190.9945526123047	638.9301147460938	-152.7486724853516	-143.8877868652344	280.7676086425781	98.23967742919919	-243.9557342529297	636.563232421875	-111.5177917480469	122.5310134887696	1056.445678710938	-194.8245849609375	164.9722137451172	1080.292846679688	-259.3869628906251	173.9082336425781	1084.809692382812	257.0797424316406	358.3166198730469	926.12939453125	185.8682250976562	330.6069946289062	890.6388549804688	-228.8303680419922	237.2018737792969	1526.16943359375	-68.71652984619148	81.20543670654298	1537.04248046875	-80.31153869628915	69.72706604003906	1540.13818359375	56.64239883422843	78.0455856323242	1357.437133789062	131.0710144042968	61.23657608032229	1351.964599609375	-148.1133117675782	72.16323852539062	1299.435180664062	-2.635715246200632	426.7781982421876	911.6482543945312	-255.8269653320312	435.4703369140624	911.3342895507812	273.5556335449219	
470	3.908333333333333	235.5529937744141	1513.489013671875	57.21816253662103	-188.16015625	268.3101501464844	175.9547729492187	-32.67287445068359	1159.962158203125	5.597342491149827	-150.8443145751953	631.7265625	-68.19961547851568	62.92807006835939	972.5068969726562	-134.4311676025391	-189.7309417724609	1352.325927734375	18.76709938049306	138.2596435546875	1064.22021484375	206.3402404785156	335.8809509277343	905.445556640625	253.2865905761718	23.92542457580566	1432.562133789062	1.425218105316077	-262.2864990234375	1106.184936523438	-92.01264953613291	-33.93783569335936	485.6413879394531	-105.7188873291016	-21.89372444152834	148.75244140625	134.404541015625	356.6472778320312	938.7073364257812	-177.3408813476562	-395.1634216308594	1160.898681640625	-21.9509963989259	-382.7808837890625	1151.84228515625	109.9595336914061	-224.6648864746094	1084.496215820312	137.3295288085937	39.99350738525391	904.0166625976562	-31.55739402771001	-98.00697326660158	610.1376342773438	76.63298034667963	-119.2096862792969	676.5325927734375	184.5644836425781	-180.1876831054687	636.843994140625	-153.0469665527344	-157.1566772460938	281.0973510742188	97.39339447021482	-233.4541931152344	632.2919921875	-112.5426559448243	122.7722320556641	1056.659790039062	-195.0763397216797	165.3067779541016	1080.506225585938	-259.5376281738282	174.3305053710937	1085.098999023438	256.9380187988281	358.5040588378906	926.072265625	185.9002532958984	330.7785034179688	890.67236328125	-228.568832397461	237.2308502197266	1526.359008789062	-69.48887634277351	81.45191955566408	1537.272827148438	-80.88930511474618	70.15695190429688	1540.436157226562	56.0974693298339	78.85972595214842	1357.79345703125	130.4955902099609	61.60231018066408	1352.213745117188	-148.4577636718751	72.57433319091797	1299.763305664062	-3.013003587722849	426.9549560546876	911.6522827148438	-255.7239074707031	435.5716857910156	911.22802734375	273.5807800292969	
